<svg xmlns="http://www.w3.org/2000/svg" xmlns:xlink="http://www.w3.org/1999/xlink" version="1.1" id="Layer_1" x="0px" y="0px" width="100px" height="100px" viewBox="0 0 100 100" enable-background="new 0 0 100 100" xml:space="preserve">
<path d="M3.374,44.249l44.219-25.727c1.207-0.48,1.891-0.762,2.974-0.762c3.48,0,6.305,2.822,6.305,6.304v14.154l33.854-19.696  c1.205-0.48,1.891-0.762,2.973-0.762c3.48,0,6.303,2.822,6.303,6.304v51.871c0,3.482-2.822,6.304-6.303,6.304  c-1.082,0-1.768-0.28-2.973-0.761L56.871,61.781v14.154c0,3.482-2.824,6.304-6.305,6.304c-1.083,0-1.767-0.28-2.974-0.761  L3.374,55.751C1.318,54.532,0.367,52.573,0,50.316v-0.633C0.367,47.427,1.318,45.468,3.374,44.249z"/>
</svg>